<svg xmlns="http://www.w3.org/2000/svg" version="1.1" xmlns:xlink="http://www.w3.org/1999/xlink" xmlns:svgjs="http://svgjs.dev/svgjs" width="1440" height="560" preserveAspectRatio="none" viewBox="0 0 1440 560"><g mask="url(&quot;#SvgjsMask1047&quot;)" fill="none"><rect width="1440" height="560" x="0" y="0" fill="url(&quot;#SvgjsLinearGradient1048&quot;)"></rect><path d="M-89.1 380.71L-89.1 380.71" stroke="#132e65" stroke-width="1.5"></path><path d="M-89.1 380.71L-83.54 509.05" stroke="#132e65" stroke-width="1.5"></path><path d="M-89.1 380.71L94.25 349.32" stroke="#132e65" stroke-width="1.5"></path><path d="M-89.1 380.71L108.48 533.82" stroke="#132e65" stroke-width="1.5"></path><path d="M-89.1 380.71L59.21 638.87" stroke="#132e65" stroke-width="1.5"></path><path d="M-83.54 509.05L-83.54 509.05" stroke="#132e65" stroke-width="1.5"></path><path d="M-83.54 509.05L59.21 638.87" stroke="#132e65" stroke-width="1.5"></path><path d="M94.25 349.32L94.25 349.32" stroke="#132e65" stroke-width="1.5"></path><path d="M94.25 349.32L213.99 377.15" stroke="#132e65" stroke-width="1.5"></path><path d="M94.25 349.32L108.48 533.82" stroke="#132e65" stroke-width="1.5"></path><path d="M94.25 349.32L-83.54 509.05" stroke="#132e65" stroke-width="1.5"></path><path d="M94.25 349.32L216.62 558.96" stroke="#132e65" stroke-width="1.5"></path><path d="M108.48 533.82L108.48 533.82" stroke="#132e65" stroke-width="1.5"></path><path d="M108.48 533.82L216.62 558.96" stroke="#132e65" stroke-width="1.5"></path><path d="M108.48 533.82L59.21 638.87" stroke="#132e65" stroke-width="1.5"></path><path d="M108.48 533.82L213.99 377.15" stroke="#132e65" stroke-width="1.5"></path><path d="M108.48 533.82L-83.54 509.05" stroke="#132e65" stroke-width="1.5"></path><path d="M59.21 638.87L59.21 638.87" stroke="#132e65" stroke-width="1.5"></path><path d="M59.21 638.87L216.62 558.96" stroke="#132e65" stroke-width="1.5"></path><path d="M213.99 377.15L213.99 377.15" stroke="#132e65" stroke-width="1.5"></path><path d="M213.99 377.15L216.62 558.96" stroke="#132e65" stroke-width="1.5"></path><path d="M213.99 377.15L405.8 351.81" stroke="#132e65" stroke-width="1.5"></path><path d="M216.62 558.96L216.62 558.96" stroke="#132e65" stroke-width="1.5"></path><path d="M216.62 558.96L260.56 663.1" stroke="#132e65" stroke-width="1.5"></path><path d="M216.62 558.96L389.14 526.05" stroke="#132e65" stroke-width="1.5"></path><path d="M260.56 663.1L260.56 663.1" stroke="#132e65" stroke-width="1.5"></path><path d="M260.56 663.1L368.82 709.71" stroke="#132e65" stroke-width="1.5"></path><path d="M260.56 663.1L389.14 526.05" stroke="#132e65" stroke-width="1.5"></path><path d="M260.56 663.1L108.48 533.82" stroke="#132e65" stroke-width="1.5"></path><path d="M405.8 351.81L405.8 351.81" stroke="#132e65" stroke-width="1.5"></path><path d="M405.8 351.81L533 393.55" stroke="#132e65" stroke-width="1.5"></path><path d="M405.8 351.81L389.14 526.05" stroke="#132e65" stroke-width="1.5"></path><path d="M405.8 351.81L216.62 558.96" stroke="#132e65" stroke-width="1.5"></path><path d="M405.8 351.81L705.74 374.58" stroke="#132e65" stroke-width="1.5"></path><path d="M389.14 526.05L389.14 526.05" stroke="#132e65" stroke-width="1.5"></path><path d="M389.14 526.05L368.82 709.71" stroke="#132e65" stroke-width="1.5"></path><path d="M389.14 526.05L533 393.55" stroke="#132e65" stroke-width="1.5"></path><path d="M389.14 526.05L506.05 709.44" stroke="#132e65" stroke-width="1.5"></path><path d="M368.82 709.71L368.82 709.71" stroke="#132e65" stroke-width="1.5"></path><path d="M368.82 709.71L506.05 709.44" stroke="#132e65" stroke-width="1.5"></path><path d="M368.82 709.71L216.62 558.96" stroke="#132e65" stroke-width="1.5"></path><path d="M368.82 709.71L108.48 533.82" stroke="#132e65" stroke-width="1.5"></path><path d="M533 393.55L533 393.55" stroke="#132e65" stroke-width="1.5"></path><path d="M533 393.55L705.74 374.58" stroke="#132e65" stroke-width="1.5"></path><path d="M506.05 709.44L506.05 709.44" stroke="#132e65" stroke-width="1.5"></path><path d="M506.05 709.44L683.72 669.25" stroke="#132e65" stroke-width="1.5"></path><path d="M506.05 709.44L657.13 553.49" stroke="#132e65" stroke-width="1.5"></path><path d="M506.05 709.44L260.56 663.1" stroke="#132e65" stroke-width="1.5"></path><path d="M506.05 709.44L533 393.55" stroke="#132e65" stroke-width="1.5"></path><path d="M705.74 374.58L705.74 374.58" stroke="#132e65" stroke-width="1.5"></path><path d="M705.74 374.58L848.58 408.25" stroke="#132e65" stroke-width="1.5"></path><path d="M705.74 374.58L657.13 553.49" stroke="#132e65" stroke-width="1.5"></path><path d="M705.74 374.58L827.3 230.46" stroke="#132e65" stroke-width="1.5"></path><path d="M657.13 553.49L657.13 553.49" stroke="#132e65" stroke-width="1.5"></path><path d="M657.13 553.49L683.72 669.25" stroke="#132e65" stroke-width="1.5"></path><path d="M657.13 553.49L803.99 535.94" stroke="#132e65" stroke-width="1.5"></path><path d="M657.13 553.49L533 393.55" stroke="#132e65" stroke-width="1.5"></path><path d="M683.72 669.25L683.72 669.25" stroke="#132e65" stroke-width="1.5"></path><path d="M683.72 669.25L803.99 535.94" stroke="#132e65" stroke-width="1.5"></path><path d="M848.8 94.05L848.8 94.05" stroke="#132e65" stroke-width="1.5"></path><path d="M848.8 94.05L950.37 71.37" stroke="#132e65" stroke-width="1.5"></path><path d="M848.8 94.05L827.3 230.46" stroke="#132e65" stroke-width="1.5"></path><path d="M848.8 94.05L938.83 243.51" stroke="#132e65" stroke-width="1.5"></path><path d="M848.8 94.05L937.88 -107.59" stroke="#132e65" stroke-width="1.5"></path><path d="M848.8 94.05L1139.56 45.67" stroke="#132e65" stroke-width="1.5"></path><path d="M848.8 94.05L948.14 373.76" stroke="#132e65" stroke-width="1.5"></path><path d="M827.3 230.46L827.3 230.46" stroke="#132e65" stroke-width="1.5"></path><path d="M827.3 230.46L938.83 243.51" stroke="#132e65" stroke-width="1.5"></path><path d="M827.3 230.46L848.58 408.25" stroke="#132e65" stroke-width="1.5"></path><path d="M827.3 230.46L948.14 373.76" stroke="#132e65" stroke-width="1.5"></path><path d="M848.58 408.25L848.58 408.25" stroke="#132e65" stroke-width="1.5"></path><path d="M848.58 408.25L948.14 373.76" stroke="#132e65" stroke-width="1.5"></path><path d="M848.58 408.25L803.99 535.94" stroke="#132e65" stroke-width="1.5"></path><path d="M803.99 535.94L803.99 535.94" stroke="#132e65" stroke-width="1.5"></path><path d="M803.99 535.94L987.13 557.96" stroke="#132e65" stroke-width="1.5"></path><path d="M937.88 -107.59L937.88 -107.59" stroke="#132e65" stroke-width="1.5"></path><path d="M937.88 -107.59L950.37 71.37" stroke="#132e65" stroke-width="1.5"></path><path d="M937.88 -107.59L1137.61 -42.96" stroke="#132e65" stroke-width="1.5"></path><path d="M950.37 71.37L950.37 71.37" stroke="#132e65" stroke-width="1.5"></path><path d="M950.37 71.37L938.83 243.51" stroke="#132e65" stroke-width="1.5"></path><path d="M950.37 71.37L1139.56 45.67" stroke="#132e65" stroke-width="1.5"></path><path d="M950.37 71.37L827.3 230.46" stroke="#132e65" stroke-width="1.5"></path><path d="M950.37 71.37L1137.61 -42.96" stroke="#132e65" stroke-width="1.5"></path><path d="M938.83 243.51L938.83 243.51" stroke="#132e65" stroke-width="1.5"></path><path d="M938.83 243.51L948.14 373.76" stroke="#132e65" stroke-width="1.5"></path><path d="M948.14 373.76L948.14 373.76" stroke="#132e65" stroke-width="1.5"></path><path d="M948.14 373.76L987.13 557.96" stroke="#132e65" stroke-width="1.5"></path><path d="M948.14 373.76L1161.19 369.21" stroke="#132e65" stroke-width="1.5"></path><path d="M987.13 557.96L987.13 557.96" stroke="#132e65" stroke-width="1.5"></path><path d="M987.13 557.96L1007.43 667.38" stroke="#132e65" stroke-width="1.5"></path><path d="M987.13 557.96L1104.25 552.13" stroke="#132e65" stroke-width="1.5"></path><path d="M987.13 557.96L1131.02 659.33" stroke="#132e65" stroke-width="1.5"></path><path d="M1007.43 667.38L1007.43 667.38" stroke="#132e65" stroke-width="1.5"></path><path d="M1007.43 667.38L1131.02 659.33" stroke="#132e65" stroke-width="1.5"></path><path d="M1137.61 -42.96L1137.61 -42.96" stroke="#132e65" stroke-width="1.5"></path><path d="M1137.61 -42.96L1139.56 45.67" stroke="#132e65" stroke-width="1.5"></path><path d="M1137.61 -42.96L1251.21 -72.37" stroke="#132e65" stroke-width="1.5"></path><path d="M1139.56 45.67L1139.56 45.67" stroke="#132e65" stroke-width="1.5"></path><path d="M1139.56 45.67L1275.14 60.76" stroke="#132e65" stroke-width="1.5"></path><path d="M1117.18 235.11L1117.18 235.11" stroke="#132e65" stroke-width="1.5"></path><path d="M1117.18 235.11L1161.19 369.21" stroke="#132e65" stroke-width="1.5"></path><path d="M1117.18 235.11L1276.33 203.28" stroke="#132e65" stroke-width="1.5"></path><path d="M1117.18 235.11L938.83 243.51" stroke="#132e65" stroke-width="1.5"></path><path d="M1161.19 369.21L1161.19 369.21" stroke="#132e65" stroke-width="1.5"></path><path d="M1161.19 369.21L1263.9 350.43" stroke="#132e65" stroke-width="1.5"></path><path d="M1161.19 369.21L1104.25 552.13" stroke="#132e65" stroke-width="1.5"></path><path d="M1161.19 369.21L1276.33 203.28" stroke="#132e65" stroke-width="1.5"></path><path d="M1104.25 552.13L1104.25 552.13" stroke="#132e65" stroke-width="1.5"></path><path d="M1104.25 552.13L1131.02 659.33" stroke="#132e65" stroke-width="1.5"></path><path d="M1104.25 552.13L1007.43 667.38" stroke="#132e65" stroke-width="1.5"></path><path d="M1104.25 552.13L1238.88 650.39" stroke="#132e65" stroke-width="1.5"></path><path d="M1104.25 552.13L1285.68 547.84" stroke="#132e65" stroke-width="1.5"></path><path d="M1131.02 659.33L1131.02 659.33" stroke="#132e65" stroke-width="1.5"></path><path d="M1131.02 659.33L1238.88 650.39" stroke="#132e65" stroke-width="1.5"></path><path d="M1131.02 659.33L1285.68 547.84" stroke="#132e65" stroke-width="1.5"></path><path d="M1251.21 -72.37L1251.21 -72.37" stroke="#132e65" stroke-width="1.5"></path><path d="M1251.21 -72.37L1275.14 60.76" stroke="#132e65" stroke-width="1.5"></path><path d="M1251.21 -72.37L1139.56 45.67" stroke="#132e65" stroke-width="1.5"></path><path d="M1251.21 -72.37L1445.31 -107.23" stroke="#132e65" stroke-width="1.5"></path><path d="M1251.21 -72.37L1449.97 40.96" stroke="#132e65" stroke-width="1.5"></path><path d="M1251.21 -72.37L1276.33 203.28" stroke="#132e65" stroke-width="1.5"></path><path d="M1275.14 60.76L1275.14 60.76" stroke="#132e65" stroke-width="1.5"></path><path d="M1275.14 60.76L1276.33 203.28" stroke="#132e65" stroke-width="1.5"></path><path d="M1275.14 60.76L1137.61 -42.96" stroke="#132e65" stroke-width="1.5"></path><path d="M1275.14 60.76L1449.97 40.96" stroke="#132e65" stroke-width="1.5"></path><path d="M1276.33 203.28L1276.33 203.28" stroke="#132e65" stroke-width="1.5"></path><path d="M1276.33 203.28L1263.9 350.43" stroke="#132e65" stroke-width="1.5"></path><path d="M1276.33 203.28L1459.62 262.39" stroke="#132e65" stroke-width="1.5"></path><path d="M1263.9 350.43L1263.9 350.43" stroke="#132e65" stroke-width="1.5"></path><path d="M1263.9 350.43L1399.57 356.16" stroke="#132e65" stroke-width="1.5"></path><path d="M1285.68 547.84L1285.68 547.84" stroke="#132e65" stroke-width="1.5"></path><path d="M1285.68 547.84L1238.88 650.39" stroke="#132e65" stroke-width="1.5"></path><path d="M1285.68 547.84L1404.7 542.8" stroke="#132e65" stroke-width="1.5"></path><path d="M1285.68 547.84L1263.9 350.43" stroke="#132e65" stroke-width="1.5"></path><path d="M1238.88 650.39L1238.88 650.39" stroke="#132e65" stroke-width="1.5"></path><path d="M1238.88 650.39L1413.42 708.44" stroke="#132e65" stroke-width="1.5"></path><path d="M1445.31 -107.23L1445.31 -107.23" stroke="#132e65" stroke-width="1.5"></path><path d="M1445.31 -107.23L1590.38 -108.94" stroke="#132e65" stroke-width="1.5"></path><path d="M1445.31 -107.23L1449.97 40.96" stroke="#132e65" stroke-width="1.5"></path><path d="M1445.31 -107.23L1595.29 62.01" stroke="#132e65" stroke-width="1.5"></path><path d="M1445.31 -107.23L1275.14 60.76" stroke="#132e65" stroke-width="1.5"></path><path d="M1445.31 -107.23L1137.61 -42.96" stroke="#132e65" stroke-width="1.5"></path><path d="M1449.97 40.96L1449.97 40.96" stroke="#132e65" stroke-width="1.5"></path><path d="M1449.97 40.96L1595.29 62.01" stroke="#132e65" stroke-width="1.5"></path><path d="M1449.97 40.96L1590.38 -108.94" stroke="#132e65" stroke-width="1.5"></path><path d="M1449.97 40.96L1459.62 262.39" stroke="#132e65" stroke-width="1.5"></path><path d="M1449.97 40.96L1608.45 196.66" stroke="#132e65" stroke-width="1.5"></path><path d="M1459.62 262.39L1459.62 262.39" stroke="#132e65" stroke-width="1.5"></path><path d="M1459.62 262.39L1399.57 356.16" stroke="#132e65" stroke-width="1.5"></path><path d="M1459.62 262.39L1608.45 196.66" stroke="#132e65" stroke-width="1.5"></path><path d="M1459.62 262.39L1590.88 373.34" stroke="#132e65" stroke-width="1.5"></path><path d="M1459.62 262.39L1263.9 350.43" stroke="#132e65" stroke-width="1.5"></path><path d="M1399.57 356.16L1399.57 356.16" stroke="#132e65" stroke-width="1.5"></path><path d="M1399.57 356.16L1404.7 542.8" stroke="#132e65" stroke-width="1.5"></path><path d="M1399.57 356.16L1590.88 373.34" stroke="#132e65" stroke-width="1.5"></path><path d="M1404.7 542.8L1404.7 542.8" stroke="#132e65" stroke-width="1.5"></path><path d="M1404.7 542.8L1554.28 497.59" stroke="#132e65" stroke-width="1.5"></path><path d="M1404.7 542.8L1413.42 708.44" stroke="#132e65" stroke-width="1.5"></path><path d="M1413.42 708.44L1413.42 708.44" stroke="#132e65" stroke-width="1.5"></path><path d="M1413.42 708.44L1538.57 681.75" stroke="#132e65" stroke-width="1.5"></path><path d="M1590.38 -108.94L1590.38 -108.94" stroke="#132e65" stroke-width="1.5"></path><path d="M1590.38 -108.94L1595.29 62.01" stroke="#132e65" stroke-width="1.5"></path><path d="M1595.29 62.01L1595.29 62.01" stroke="#132e65" stroke-width="1.5"></path><path d="M1595.29 62.01L1608.45 196.66" stroke="#132e65" stroke-width="1.5"></path><path d="M1608.45 196.66L1608.45 196.66" stroke="#132e65" stroke-width="1.5"></path><path d="M1608.45 196.66L1590.88 373.34" stroke="#132e65" stroke-width="1.5"></path><path d="M1608.45 196.66L1399.57 356.16" stroke="#132e65" stroke-width="1.5"></path><path d="M1590.88 373.34L1590.88 373.34" stroke="#132e65" stroke-width="1.5"></path><path d="M1590.88 373.34L1554.28 497.59" stroke="#132e65" stroke-width="1.5"></path><path d="M1590.88 373.34L1404.7 542.8" stroke="#132e65" stroke-width="1.5"></path><path d="M1590.88 373.34L1595.29 62.01" stroke="#132e65" stroke-width="1.5"></path><path d="M1554.28 497.59L1554.28 497.59" stroke="#132e65" stroke-width="1.5"></path><path d="M1554.28 497.59L1538.57 681.75" stroke="#132e65" stroke-width="1.5"></path><path d="M1554.28 497.59L1399.57 356.16" stroke="#132e65" stroke-width="1.5"></path><path d="M1554.28 497.59L1459.62 262.39" stroke="#132e65" stroke-width="1.5"></path><path d="M1538.57 681.75L1538.57 681.75" stroke="#132e65" stroke-width="1.5"></path><path d="M1538.57 681.75L1404.7 542.8" stroke="#132e65" stroke-width="1.5"></path><path d="M1538.57 681.75L1285.68 547.84" stroke="#132e65" stroke-width="1.5"></path><path d="M1538.57 681.75L1238.88 650.39" stroke="#132e65" stroke-width="1.5"></path><path d="M1538.57 681.75L1590.88 373.34" stroke="#132e65" stroke-width="1.5"></path><circle r="5" cx="-89.1" cy="380.71" fill="#132e65"></circle><circle r="5" cx="-83.54" cy="509.05" fill="#132e65"></circle><circle r="5" cx="94.25" cy="349.32" fill="#132e65"></circle><circle r="5" cx="108.48" cy="533.82" fill="#132e65"></circle><circle r="5" cx="59.21" cy="638.87" fill="#132e65"></circle><circle r="5" cx="213.99" cy="377.15" fill="#132e65"></circle><circle r="5" cx="216.62" cy="558.96" fill="#132e65"></circle><circle r="5" cx="260.56" cy="663.1" fill="#132e65"></circle><circle r="5" cx="405.8" cy="351.81" fill="#132e65"></circle><circle r="5" cx="389.14" cy="526.05" fill="#132e65"></circle><circle r="5" cx="368.82" cy="709.71" fill="#132e65"></circle><circle r="5" cx="533" cy="393.55" fill="#132e65"></circle><circle r="5" cx="506.05" cy="709.44" fill="#132e65"></circle><circle r="5" cx="705.74" cy="374.58" fill="#132e65"></circle><circle r="5" cx="657.13" cy="553.49" fill="#132e65"></circle><circle r="5" cx="683.72" cy="669.25" fill="#132e65"></circle><circle r="5" cx="848.8" cy="94.05" fill="#132e65"></circle><circle r="5" cx="827.3" cy="230.46" fill="#132e65"></circle><circle r="5" cx="848.58" cy="408.25" fill="#132e65"></circle><circle r="5" cx="803.99" cy="535.94" fill="#132e65"></circle><circle r="5" cx="937.88" cy="-107.59" fill="#132e65"></circle><circle r="5" cx="950.37" cy="71.37" fill="#132e65"></circle><circle r="5" cx="938.83" cy="243.51" fill="#132e65"></circle><circle r="5" cx="948.14" cy="373.76" fill="#132e65"></circle><circle r="5" cx="987.13" cy="557.96" fill="#132e65"></circle><circle r="5" cx="1007.43" cy="667.38" fill="#132e65"></circle><circle r="5" cx="1137.61" cy="-42.96" fill="#132e65"></circle><circle r="5" cx="1139.56" cy="45.67" fill="#132e65"></circle><circle r="5" cx="1117.18" cy="235.11" fill="#132e65"></circle><circle r="5" cx="1161.19" cy="369.21" fill="#132e65"></circle><circle r="5" cx="1104.25" cy="552.13" fill="#132e65"></circle><circle r="5" cx="1131.02" cy="659.33" fill="#132e65"></circle><circle r="5" cx="1251.21" cy="-72.37" fill="#132e65"></circle><circle r="5" cx="1275.14" cy="60.76" fill="#132e65"></circle><circle r="5" cx="1276.33" cy="203.28" fill="#132e65"></circle><circle r="5" cx="1263.9" cy="350.43" fill="#132e65"></circle><circle r="5" cx="1285.68" cy="547.84" fill="#132e65"></circle><circle r="5" cx="1238.88" cy="650.39" fill="#132e65"></circle><circle r="5" cx="1445.31" cy="-107.23" fill="#132e65"></circle><circle r="5" cx="1449.97" cy="40.96" fill="#132e65"></circle><circle r="5" cx="1459.62" cy="262.39" fill="#132e65"></circle><circle r="5" cx="1399.57" cy="356.16" fill="#132e65"></circle><circle r="5" cx="1404.7" cy="542.8" fill="#132e65"></circle><circle r="5" cx="1413.42" cy="708.44" fill="#132e65"></circle><circle r="5" cx="1590.38" cy="-108.94" fill="#132e65"></circle><circle r="5" cx="1595.29" cy="62.01" fill="#132e65"></circle><circle r="5" cx="1608.45" cy="196.66" fill="#132e65"></circle><circle r="5" cx="1590.88" cy="373.34" fill="#132e65"></circle><circle r="5" cx="1554.28" cy="497.59" fill="#132e65"></circle><circle r="5" cx="1538.57" cy="681.75" fill="#132e65"></circle><path d="M-46.67 697.38L-46.67 697.38" stroke="hsl(228.5, 77.2%, 51.5%)" stroke-width="1.5"></path><path d="M-46.67 697.38L91.56 646.2" stroke="hsl(228.5, 77.2%, 51.5%)" stroke-width="1.5"></path><path d="M-46.67 697.38L78.52 556.24" stroke="hsl(228.5, 77.2%, 51.5%)" stroke-width="1.5"></path><path d="M-46.67 697.38L-49.51 487.53" stroke="hsl(228.5, 77.2%, 51.5%)" stroke-width="1.5"></path><path d="M-46.67 697.38L243.25 647.14" stroke="hsl(228.5, 77.2%, 51.5%)" stroke-width="1.5"></path><path d="M-46.67 697.38L362.11 645.39" stroke="hsl(228.5, 77.2%, 51.5%)" stroke-width="1.5"></path><path d="M-46.67 697.38L394.98 537.91" stroke="hsl(228.5, 77.2%, 51.5%)" stroke-width="1.5"></path><path d="M91.56 646.2L91.56 646.2" stroke="hsl(228.5, 77.2%, 51.5%)" stroke-width="1.5"></path><path d="M91.56 646.2L78.52 556.24" stroke="hsl(228.5, 77.2%, 51.5%)" stroke-width="1.5"></path><path d="M91.56 646.2L243.25 647.14" stroke="hsl(228.5, 77.2%, 51.5%)" stroke-width="1.5"></path><path d="M91.56 646.2L-49.51 487.53" stroke="hsl(228.5, 77.2%, 51.5%)" stroke-width="1.5"></path><path d="M91.56 646.2L362.11 645.39" stroke="hsl(228.5, 77.2%, 51.5%)" stroke-width="1.5"></path><path d="M394.98 537.91L394.98 537.91" stroke="hsl(228.5, 77.2%, 51.5%)" stroke-width="1.5"></path><path d="M394.98 537.91L362.11 645.39" stroke="hsl(228.5, 77.2%, 51.5%)" stroke-width="1.5"></path><path d="M394.98 537.91L537.65 543.37" stroke="hsl(228.5, 77.2%, 51.5%)" stroke-width="1.5"></path><path d="M853.32 696.64L853.32 696.64" stroke="hsl(228.5, 77.2%, 51.5%)" stroke-width="1.5"></path><path d="M853.32 696.64L858.89 533.58" stroke="hsl(228.5, 77.2%, 51.5%)" stroke-width="1.5"></path><path d="M853.32 696.64L665.1 704.76" stroke="hsl(228.5, 77.2%, 51.5%)" stroke-width="1.5"></path><path d="M1302.76 51.46L1302.76 51.46" stroke="hsl(228.5, 77.2%, 51.5%)" stroke-width="1.5"></path><path d="M1302.76 51.46L1388.63 58.94" stroke="hsl(228.5, 77.2%, 51.5%)" stroke-width="1.5"></path><path d="M1302.76 51.46L1303.5 -43.12" stroke="hsl(228.5, 77.2%, 51.5%)" stroke-width="1.5"></path><path d="M-49.51 487.53L-49.51 487.53" stroke="hsl(228.5, 77.2%, 51.5%)" stroke-width="1.5"></path><path d="M-49.51 487.53L78.52 556.24" stroke="hsl(228.5, 77.2%, 51.5%)" stroke-width="1.5"></path><path d="M-49.51 487.53L243.25 647.14" stroke="hsl(228.5, 77.2%, 51.5%)" stroke-width="1.5"></path><path d="M78.52 556.24L78.52 556.24" stroke="hsl(228.5, 77.2%, 51.5%)" stroke-width="1.5"></path><path d="M78.52 556.24L243.25 647.14" stroke="hsl(228.5, 77.2%, 51.5%)" stroke-width="1.5"></path><path d="M243.25 647.14L243.25 647.14" stroke="hsl(228.5, 77.2%, 51.5%)" stroke-width="1.5"></path><path d="M243.25 647.14L362.11 645.39" stroke="hsl(228.5, 77.2%, 51.5%)" stroke-width="1.5"></path><path d="M243.25 647.14L394.98 537.91" stroke="hsl(228.5, 77.2%, 51.5%)" stroke-width="1.5"></path><path d="M362.11 645.39L362.11 645.39" stroke="hsl(228.5, 77.2%, 51.5%)" stroke-width="1.5"></path><path d="M362.11 645.39L537.2 710.44" stroke="hsl(228.5, 77.2%, 51.5%)" stroke-width="1.5"></path><path d="M362.11 645.39L537.65 543.37" stroke="hsl(228.5, 77.2%, 51.5%)" stroke-width="1.5"></path><path d="M537.65 543.37L537.65 543.37" stroke="hsl(228.5, 77.2%, 51.5%)" stroke-width="1.5"></path><path d="M537.65 543.37L646.4 560.51" stroke="hsl(228.5, 77.2%, 51.5%)" stroke-width="1.5"></path><path d="M537.2 710.44L537.2 710.44" stroke="hsl(228.5, 77.2%, 51.5%)" stroke-width="1.5"></path><path d="M537.2 710.44L665.1 704.76" stroke="hsl(228.5, 77.2%, 51.5%)" stroke-width="1.5"></path><path d="M537.2 710.44L537.65 543.37" stroke="hsl(228.5, 77.2%, 51.5%)" stroke-width="1.5"></path><path d="M646.4 560.51L646.4 560.51" stroke="hsl(228.5, 77.2%, 51.5%)" stroke-width="1.5"></path><path d="M646.4 560.51L665.1 704.76" stroke="hsl(228.5, 77.2%, 51.5%)" stroke-width="1.5"></path><path d="M646.4 560.51L537.2 710.44" stroke="hsl(228.5, 77.2%, 51.5%)" stroke-width="1.5"></path><path d="M646.4 560.51L858.89 533.58" stroke="hsl(228.5, 77.2%, 51.5%)" stroke-width="1.5"></path><path d="M665.1 704.76L665.1 704.76" stroke="hsl(228.5, 77.2%, 51.5%)" stroke-width="1.5"></path><path d="M845.02 350.64L845.02 350.64" stroke="hsl(228.5, 77.2%, 51.5%)" stroke-width="1.5"></path><path d="M845.02 350.64L1009.35 368.63" stroke="hsl(228.5, 77.2%, 51.5%)" stroke-width="1.5"></path><path d="M845.02 350.64L858.89 533.58" stroke="hsl(228.5, 77.2%, 51.5%)" stroke-width="1.5"></path><path d="M858.89 533.58L858.89 533.58" stroke="hsl(228.5, 77.2%, 51.5%)" stroke-width="1.5"></path><path d="M858.89 533.58L964.37 492.91" stroke="hsl(228.5, 77.2%, 51.5%)" stroke-width="1.5"></path><path d="M1009.35 368.63L1009.35 368.63" stroke="hsl(228.5, 77.2%, 51.5%)" stroke-width="1.5"></path><path d="M1009.35 368.63L964.37 492.91" stroke="hsl(228.5, 77.2%, 51.5%)" stroke-width="1.5"></path><path d="M1009.35 368.63L1151.07 393.56" stroke="hsl(228.5, 77.2%, 51.5%)" stroke-width="1.5"></path><path d="M1009.35 368.63L1108.63 237.35" stroke="hsl(228.5, 77.2%, 51.5%)" stroke-width="1.5"></path><path d="M964.37 492.91L964.37 492.91" stroke="hsl(228.5, 77.2%, 51.5%)" stroke-width="1.5"></path><path d="M1108.63 237.35L1108.63 237.35" stroke="hsl(228.5, 77.2%, 51.5%)" stroke-width="1.5"></path><path d="M1108.63 237.35L1151.07 393.56" stroke="hsl(228.5, 77.2%, 51.5%)" stroke-width="1.5"></path><path d="M1108.63 237.35L1260.14 349.75" stroke="hsl(228.5, 77.2%, 51.5%)" stroke-width="1.5"></path><path d="M1151.07 393.56L1151.07 393.56" stroke="hsl(228.5, 77.2%, 51.5%)" stroke-width="1.5"></path><path d="M1151.07 393.56L1260.14 349.75" stroke="hsl(228.5, 77.2%, 51.5%)" stroke-width="1.5"></path><path d="M1151.07 393.56L1150.75 516.47" stroke="hsl(228.5, 77.2%, 51.5%)" stroke-width="1.5"></path><path d="M1151.07 393.56L964.37 492.91" stroke="hsl(228.5, 77.2%, 51.5%)" stroke-width="1.5"></path><path d="M1150.75 516.47L1150.75 516.47" stroke="hsl(228.5, 77.2%, 51.5%)" stroke-width="1.5"></path><path d="M1150.75 516.47L1306.16 558.36" stroke="hsl(228.5, 77.2%, 51.5%)" stroke-width="1.5"></path><path d="M1150.75 516.47L964.37 492.91" stroke="hsl(228.5, 77.2%, 51.5%)" stroke-width="1.5"></path><path d="M1303.5 -43.12L1303.5 -43.12" stroke="hsl(228.5, 77.2%, 51.5%)" stroke-width="1.5"></path><path d="M1303.5 -43.12L1388.63 58.94" stroke="hsl(228.5, 77.2%, 51.5%)" stroke-width="1.5"></path><path d="M1303.5 -43.12L1455.69 -109.56" stroke="hsl(228.5, 77.2%, 51.5%)" stroke-width="1.5"></path><path d="M1303.5 -43.12L1309.89 192.45" stroke="hsl(228.5, 77.2%, 51.5%)" stroke-width="1.5"></path><path d="M1309.89 192.45L1309.89 192.45" stroke="hsl(228.5, 77.2%, 51.5%)" stroke-width="1.5"></path><path d="M1309.89 192.45L1405.99 193.92" stroke="hsl(228.5, 77.2%, 51.5%)" stroke-width="1.5"></path><path d="M1309.89 192.45L1302.76 51.46" stroke="hsl(228.5, 77.2%, 51.5%)" stroke-width="1.5"></path><path d="M1309.89 192.45L1388.63 58.94" stroke="hsl(228.5, 77.2%, 51.5%)" stroke-width="1.5"></path><path d="M1309.89 192.45L1260.14 349.75" stroke="hsl(228.5, 77.2%, 51.5%)" stroke-width="1.5"></path><path d="M1260.14 349.75L1260.14 349.75" stroke="hsl(228.5, 77.2%, 51.5%)" stroke-width="1.5"></path><path d="M1306.16 558.36L1306.16 558.36" stroke="hsl(228.5, 77.2%, 51.5%)" stroke-width="1.5"></path><path d="M1306.16 558.36L1402.76 514.12" stroke="hsl(228.5, 77.2%, 51.5%)" stroke-width="1.5"></path><path d="M1306.16 558.36L1278.38 712.24" stroke="hsl(228.5, 77.2%, 51.5%)" stroke-width="1.5"></path><path d="M1306.16 558.36L1433.11 673.94" stroke="hsl(228.5, 77.2%, 51.5%)" stroke-width="1.5"></path><path d="M1306.16 558.36L1260.14 349.75" stroke="hsl(228.5, 77.2%, 51.5%)" stroke-width="1.5"></path><path d="M1306.16 558.36L1461.18 395.85" stroke="hsl(228.5, 77.2%, 51.5%)" stroke-width="1.5"></path><path d="M1278.38 712.24L1278.38 712.24" stroke="hsl(228.5, 77.2%, 51.5%)" stroke-width="1.5"></path><path d="M1278.38 712.24L1433.11 673.94" stroke="hsl(228.5, 77.2%, 51.5%)" stroke-width="1.5"></path><path d="M1278.38 712.24L1150.75 516.47" stroke="hsl(228.5, 77.2%, 51.5%)" stroke-width="1.5"></path><path d="M1278.38 712.24L1402.76 514.12" stroke="hsl(228.5, 77.2%, 51.5%)" stroke-width="1.5"></path><path d="M1278.38 712.24L1609.25 664.18" stroke="hsl(228.5, 77.2%, 51.5%)" stroke-width="1.5"></path><path d="M1455.69 -109.56L1455.69 -109.56" stroke="hsl(228.5, 77.2%, 51.5%)" stroke-width="1.5"></path><path d="M1455.69 -109.56L1574 -65.49" stroke="hsl(228.5, 77.2%, 51.5%)" stroke-width="1.5"></path><path d="M1455.69 -109.56L1388.63 58.94" stroke="hsl(228.5, 77.2%, 51.5%)" stroke-width="1.5"></path><path d="M1455.69 -109.56L1556.41 53.73" stroke="hsl(228.5, 77.2%, 51.5%)" stroke-width="1.5"></path><path d="M1455.69 -109.56L1302.76 51.46" stroke="hsl(228.5, 77.2%, 51.5%)" stroke-width="1.5"></path><path d="M1455.69 -109.56L1405.99 193.92" stroke="hsl(228.5, 77.2%, 51.5%)" stroke-width="1.5"></path><path d="M1388.63 58.94L1388.63 58.94" stroke="hsl(228.5, 77.2%, 51.5%)" stroke-width="1.5"></path><path d="M1388.63 58.94L1405.99 193.92" stroke="hsl(228.5, 77.2%, 51.5%)" stroke-width="1.5"></path><path d="M1405.99 193.92L1405.99 193.92" stroke="hsl(228.5, 77.2%, 51.5%)" stroke-width="1.5"></path><path d="M1405.99 193.92L1558.11 194.97" stroke="hsl(228.5, 77.2%, 51.5%)" stroke-width="1.5"></path><path d="M1405.99 193.92L1302.76 51.46" stroke="hsl(228.5, 77.2%, 51.5%)" stroke-width="1.5"></path><path d="M1405.99 193.92L1556.41 53.73" stroke="hsl(228.5, 77.2%, 51.5%)" stroke-width="1.5"></path><path d="M1461.18 395.85L1461.18 395.85" stroke="hsl(228.5, 77.2%, 51.5%)" stroke-width="1.5"></path><path d="M1461.18 395.85L1588.39 411.48" stroke="hsl(228.5, 77.2%, 51.5%)" stroke-width="1.5"></path><path d="M1461.18 395.85L1402.76 514.12" stroke="hsl(228.5, 77.2%, 51.5%)" stroke-width="1.5"></path><path d="M1461.18 395.85L1584.55 549.99" stroke="hsl(228.5, 77.2%, 51.5%)" stroke-width="1.5"></path><path d="M1461.18 395.85L1260.14 349.75" stroke="hsl(228.5, 77.2%, 51.5%)" stroke-width="1.5"></path><path d="M1402.76 514.12L1402.76 514.12" stroke="hsl(228.5, 77.2%, 51.5%)" stroke-width="1.5"></path><path d="M1433.11 673.94L1433.11 673.94" stroke="hsl(228.5, 77.2%, 51.5%)" stroke-width="1.5"></path><path d="M1433.11 673.94L1402.76 514.12" stroke="hsl(228.5, 77.2%, 51.5%)" stroke-width="1.5"></path><path d="M1433.11 673.94L1609.25 664.18" stroke="hsl(228.5, 77.2%, 51.5%)" stroke-width="1.5"></path><path d="M1433.11 673.94L1584.55 549.99" stroke="hsl(228.5, 77.2%, 51.5%)" stroke-width="1.5"></path><path d="M1574 -65.49L1574 -65.49" stroke="hsl(228.5, 77.2%, 51.5%)" stroke-width="1.5"></path><path d="M1574 -65.49L1556.41 53.73" stroke="hsl(228.5, 77.2%, 51.5%)" stroke-width="1.5"></path><path d="M1556.41 53.73L1556.41 53.73" stroke="hsl(228.5, 77.2%, 51.5%)" stroke-width="1.5"></path><path d="M1556.41 53.73L1558.11 194.97" stroke="hsl(228.5, 77.2%, 51.5%)" stroke-width="1.5"></path><path d="M1556.41 53.73L1388.63 58.94" stroke="hsl(228.5, 77.2%, 51.5%)" stroke-width="1.5"></path><path d="M1558.11 194.97L1558.11 194.97" stroke="hsl(228.5, 77.2%, 51.5%)" stroke-width="1.5"></path><path d="M1558.11 194.97L1388.63 58.94" stroke="hsl(228.5, 77.2%, 51.5%)" stroke-width="1.5"></path><path d="M1558.11 194.97L1588.39 411.48" stroke="hsl(228.5, 77.2%, 51.5%)" stroke-width="1.5"></path><path d="M1558.11 194.97L1461.18 395.85" stroke="hsl(228.5, 77.2%, 51.5%)" stroke-width="1.5"></path><path d="M1588.39 411.48L1588.39 411.48" stroke="hsl(228.5, 77.2%, 51.5%)" stroke-width="1.5"></path><path d="M1588.39 411.48L1584.55 549.99" stroke="hsl(228.5, 77.2%, 51.5%)" stroke-width="1.5"></path><path d="M1588.39 411.48L1402.76 514.12" stroke="hsl(228.5, 77.2%, 51.5%)" stroke-width="1.5"></path><path d="M1588.39 411.48L1609.25 664.18" stroke="hsl(228.5, 77.2%, 51.5%)" stroke-width="1.5"></path><path d="M1588.39 411.48L1405.99 193.92" stroke="hsl(228.5, 77.2%, 51.5%)" stroke-width="1.5"></path><path d="M1584.55 549.99L1584.55 549.99" stroke="hsl(228.5, 77.2%, 51.5%)" stroke-width="1.5"></path><path d="M1584.55 549.99L1609.25 664.18" stroke="hsl(228.5, 77.2%, 51.5%)" stroke-width="1.5"></path><path d="M1584.55 549.99L1402.76 514.12" stroke="hsl(228.5, 77.2%, 51.5%)" stroke-width="1.5"></path><path d="M1609.25 664.18L1609.25 664.18" stroke="hsl(228.5, 77.2%, 51.5%)" stroke-width="1.5"></path><path d="M1609.25 664.18L1402.76 514.12" stroke="hsl(228.5, 77.2%, 51.5%)" stroke-width="1.5"></path><circle r="25" cx="-46.67" cy="697.38" fill="url(&quot;#SvgjsRadialGradient1049&quot;)"></circle><circle r="25" cx="91.56" cy="646.2" fill="url(&quot;#SvgjsRadialGradient1049&quot;)"></circle><circle r="25" cx="394.98" cy="537.91" fill="url(&quot;#SvgjsRadialGradient1049&quot;)"></circle><circle r="25" cx="853.32" cy="696.64" fill="url(&quot;#SvgjsRadialGradient1049&quot;)"></circle><circle r="25" cx="1302.76" cy="51.46" fill="url(&quot;#SvgjsRadialGradient1049&quot;)"></circle><circle r="5" cx="-49.51" cy="487.53" fill="#8b9ad9"></circle><circle r="5" cx="78.52" cy="556.24" fill="#8b9ad9"></circle><circle r="5" cx="243.25" cy="647.14" fill="#8b9ad9"></circle><circle r="5" cx="362.11" cy="645.39" fill="#8b9ad9"></circle><circle r="5" cx="537.65" cy="543.37" fill="#8b9ad9"></circle><circle r="5" cx="537.2" cy="710.44" fill="#8b9ad9"></circle><circle r="5" cx="646.4" cy="560.51" fill="#8b9ad9"></circle><circle r="5" cx="665.1" cy="704.76" fill="#8b9ad9"></circle><circle r="5" cx="845.02" cy="350.64" fill="#8b9ad9"></circle><circle r="5" cx="858.89" cy="533.58" fill="#8b9ad9"></circle><circle r="5" cx="1009.35" cy="368.63" fill="#8b9ad9"></circle><circle r="5" cx="964.37" cy="492.91" fill="#8b9ad9"></circle><circle r="5" cx="1108.63" cy="237.35" fill="#8b9ad9"></circle><circle r="5" cx="1151.07" cy="393.56" fill="#8b9ad9"></circle><circle r="5" cx="1150.75" cy="516.47" fill="#8b9ad9"></circle><circle r="5" cx="1303.5" cy="-43.12" fill="#8b9ad9"></circle><circle r="5" cx="1309.89" cy="192.45" fill="#8b9ad9"></circle><circle r="5" cx="1260.14" cy="349.75" fill="#8b9ad9"></circle><circle r="5" cx="1306.16" cy="558.36" fill="#8b9ad9"></circle><circle r="5" cx="1278.38" cy="712.24" fill="#8b9ad9"></circle><circle r="5" cx="1455.69" cy="-109.56" fill="#8b9ad9"></circle><circle r="5" cx="1388.63" cy="58.94" fill="#8b9ad9"></circle><circle r="5" cx="1405.99" cy="193.92" fill="#8b9ad9"></circle><circle r="5" cx="1461.18" cy="395.85" fill="#8b9ad9"></circle><circle r="5" cx="1402.76" cy="514.12" fill="#8b9ad9"></circle><circle r="5" cx="1433.11" cy="673.94" fill="#8b9ad9"></circle><circle r="5" cx="1574" cy="-65.49" fill="#8b9ad9"></circle><circle r="5" cx="1556.41" cy="53.73" fill="#8b9ad9"></circle><circle r="5" cx="1558.11" cy="194.97" fill="#8b9ad9"></circle><circle r="5" cx="1588.39" cy="411.48" fill="#8b9ad9"></circle><circle r="5" cx="1584.55" cy="549.99" fill="#8b9ad9"></circle><circle r="5" cx="1609.25" cy="664.18" fill="#8b9ad9"></circle></g><defs><mask id="SvgjsMask1047"><rect width="1440" height="560" fill="#ffffff"></rect></mask><linearGradient x1="0%" y1="50%" x2="100%" y2="50%" gradientUnits="userSpaceOnUse" id="SvgjsLinearGradient1048"><stop stop-color="#0e2a47" offset="0"></stop><stop stop-color="rgba(0, 69, 158, 1)" offset="0.85"></stop><stop stop-color="#00459e" offset="1"></stop></linearGradient><radialGradient id="SvgjsRadialGradient1049"><stop stop-color="#ffffff" offset="0.1"></stop><stop stop-color="#1735b3" offset="0.2"></stop><stop stop-color="rgba(23, 53, 179, 0)" offset="1"></stop></radialGradient></defs></svg>